<svg width="67" height="16" viewBox="0 0 67 16" fill="none" xmlns="http://www.w3.org/2000/svg">
<path d="M7.53467 15.2332C6.10682 15.2332 4.87778 14.944 3.84755 14.3656C2.82335 13.7812 2.03412 12.9558 1.47985 11.8894C0.925574 10.817 0.648438 9.54885 0.648438 8.08485C0.648438 6.65699 0.925574 5.40386 1.47985 4.32543C2.03412 3.24701 2.81432 2.40657 3.82044 1.80409C4.83259 1.20163 6.01946 0.900391 7.38104 0.900391C8.2968 0.900391 9.14929 1.048 9.93853 1.34321C10.7338 1.63239 11.4266 2.06918 12.017 2.65358C12.6135 3.23797 13.0774 3.97299 13.4088 4.85862C13.7401 5.73822 13.9058 6.76845 13.9058 7.94929V9.00663H2.18474V6.62084H10.2819C10.2819 6.06657 10.1614 5.57556 9.92045 5.1478C9.67946 4.72005 9.34509 4.38568 8.91734 4.14469C8.49561 3.89768 8.0046 3.77417 7.4443 3.77417C6.8599 3.77417 6.34178 3.90973 5.88993 4.18084C5.4441 4.44593 5.09467 4.8044 4.84163 5.25625C4.58859 5.70208 4.45906 6.19912 4.45304 6.74736V9.01566C4.45304 9.70248 4.57955 10.2959 4.83259 10.796C5.09165 11.296 5.45615 11.6816 5.92608 11.9527C6.396 12.2238 6.95329 12.3594 7.59793 12.3594C8.02568 12.3594 8.41729 12.2991 8.77275 12.1786C9.1282 12.0581 9.43245 11.8774 9.68549 11.6364C10.1445 11.1993 10.6959 10.7793 11.3283 10.821L11.6554 10.8426C12.8 10.9181 13.6308 12.0367 12.938 12.951C12.8668 13.0451 12.7917 13.1371 12.7129 13.2269C12.1586 13.8595 11.4417 14.3535 10.5621 14.709C9.6885 15.0584 8.67936 15.2332 7.53467 15.2332Z" fill="#008EEF"/>
<path d="M19.7589 6.93714V13.0372C19.7589 14.1002 18.8971 14.962 17.834 14.962C16.7709 14.962 15.9091 14.1002 15.9091 13.0371V2.91565C15.9091 1.90247 16.7305 1.08113 17.7436 1.08113C18.7568 1.08113 19.5782 1.90247 19.5782 2.91565V3.53017H19.7408C20.0481 2.72286 20.5632 2.08424 21.2862 1.61432C22.0091 1.13837 22.8857 0.900391 23.916 0.900391C24.8799 0.900391 25.7204 1.11126 26.4373 1.53298C27.1542 1.95471 27.7115 2.55718 28.1091 3.34039C28.5068 4.11758 28.7056 5.04538 28.7056 6.12381V13.0371C28.7056 14.1002 27.8438 14.962 26.7807 14.962C25.7176 14.962 24.8558 14.1002 24.8558 13.0372V6.81062C24.8618 5.96114 24.6449 5.29842 24.2051 4.82247C23.7653 4.34049 23.1599 4.09951 22.3887 4.09951C21.8706 4.09951 21.4127 4.21096 21.0151 4.43388C20.6235 4.65679 20.3162 4.98213 20.0933 5.40988C19.8764 5.83161 19.7649 6.3407 19.7589 6.93714Z" fill="#008EEF"/>
<path d="M40.1323 9.05181V3.00602C40.1323 1.94294 40.9941 1.08113 42.0572 1.08113C43.1203 1.08113 43.9821 1.94293 43.9821 3.00602V13.114C43.9821 14.1346 43.1547 14.962 42.134 14.962C41.1133 14.962 40.2859 14.1346 40.2859 13.114V12.4407H40.1413C39.8281 13.254 39.3069 13.9077 38.5779 14.4017C37.855 14.8958 36.9724 15.1428 35.9301 15.1428C35.0023 15.1428 34.1859 14.9319 33.481 14.5102C32.7761 14.0885 32.2249 13.489 31.8273 12.7118C31.4356 11.9346 31.2368 11.0038 31.2308 9.91937V3.00602C31.2308 1.94294 32.0926 1.08113 33.1557 1.08113C34.2188 1.08113 35.0806 1.94293 35.0806 3.00602V9.23255C35.0866 10.0519 35.3065 10.6996 35.7403 11.1755C36.1741 11.6515 36.7555 11.8894 37.4845 11.8894C37.9484 11.8894 38.3821 11.784 38.7858 11.5731C39.1894 11.3563 39.5148 11.0369 39.7618 10.6152C40.0148 10.1935 40.1383 9.67236 40.1323 9.05181Z" fill="#008EEF"/>
<path d="M48.4774 14.962C47.4143 14.962 46.5525 14.1002 46.5525 13.0371V2.91565C46.5525 1.90247 47.3738 1.08113 48.387 1.08113C49.4002 1.08113 50.2215 1.90248 50.2215 2.91565V3.53017H50.3842C50.6734 2.71684 51.1554 2.07521 51.8301 1.60528C52.5049 1.13535 53.3122 0.900391 54.2521 0.900391C55.204 0.900391 56.0143 1.13837 56.683 1.61432C57.3518 2.08424 57.7976 2.72286 58.0205 3.53017H58.1651C58.4483 2.73491 58.9604 2.09931 59.7014 1.62335C60.4485 1.14138 61.3311 0.900391 62.3493 0.900391C63.6446 0.900391 64.6959 1.31308 65.5032 2.13847C66.3165 2.95783 66.7232 4.12059 66.7232 5.62677V13.0417C66.7232 14.1023 65.8634 14.962 64.8028 14.962C63.7422 14.962 62.8825 14.1023 62.8825 13.0417V6.38588C62.8825 5.61472 62.6776 5.03635 62.2679 4.65077C61.8582 4.26519 61.3461 4.0724 60.7316 4.0724C60.0328 4.0724 59.4875 4.29531 59.0959 4.74114C58.7043 5.18094 58.5085 5.76232 58.5085 6.48529V13.0959C58.5085 14.1265 57.673 14.962 56.6424 14.962C55.6117 14.962 54.7762 14.1265 54.7762 13.0959V6.30455C54.7762 5.62376 54.5804 5.08153 54.1888 4.67788C53.8032 4.27422 53.2941 4.0724 52.6615 4.0724C52.2338 4.0724 51.8482 4.18084 51.5048 4.39773C51.1674 4.60859 50.8993 4.90682 50.7005 5.2924C50.5017 5.67195 50.4023 6.11778 50.4023 6.62988V13.0371C50.4023 14.1002 49.5405 14.962 48.4774 14.962Z" fill="#008EEF"/>
</svg>
